# xmcd
#
# Track frame offsets: 
#        150
#        7758
#        16495
#        31611
#        43309
#        61402
#        80165
#        97275
#        112987
#        129110
#        145475
#        159316
#        171253
#
# Disc length: 2535 seconds
#
# Revision: 0
# Processed by: cddbd v1.5.2PL0 Copyright (c) Steve Scherf et al.
# Submitted via: ExactAudioCopy v0.99pb5
#
DISCID=a409e50d
DTITLE=THEEsatisfaction - Earthee
DYEAR=2015
DGENRE=Hip-Hop
TTITLE0=Prophetic Perfection
TTITLE1=No GMO
TTITLE2=Planet For Sale
TTITLE3=Blandland
TTITLE4=Fetch/Catch
TTITLE5=Nature's Candy
TTITLE6=EarthEE
TTITLE7=Post Black, Anyway
TTITLE8=Universal Perspective
TTITLE9=WerQ
TTITLE10=Sir Come Navigate
TTITLE11=Recognition
TTITLE12=I Read You
EXTD=
EXTT0=
EXTT1=
EXTT2=
EXTT3=
EXTT4=
EXTT5=
EXTT6=
EXTT7=
EXTT8=
EXTT9=
EXTT10=
EXTT11=
EXTT12=
PLAYORDER=
